<svg id="visual" viewBox="0 0 900 600" width="900" height="600" xmlns="http://www.w3.org/2000/svg" xmlns:xlink="http://www.w3.org/1999/xlink" version="1.1"><path d="M0 463L37.5 460.8C75 458.7 150 454.3 225 462.5C300 470.7 375 491.3 450 497.2C525 503 600 494 675 485.8C750 477.7 825 470.3 862.5 466.7L900 463L900 601L862.5 601C825 601 750 601 675 601C600 601 525 601 450 601C375 601 300 601 225 601C150 601 75 601 37.5 601L0 601Z" fill="#cdd0d1" stroke-linecap="round" stroke-linejoin="miter"></path></svg>